<?xml version="1.0" encoding="UTF-8" standalone="no"?>
<!DOCTYPE svg PUBLIC "-//W3C//DTD SVG 1.1//EN" "http://www.w3.org/Graphics/SVG/1.1/DTD/svg11.dtd">
<svg version="1.1" xmlns="http://www.w3.org/2000/svg" xmlns:xlink="http://www.w3.org/1999/xlink" preserveAspectRatio="xMidYMid meet" viewBox="0 0 640 640" width="640" height="640"><defs><path d="M238.27 308.39C232.51 309.89 229.31 310.72 228.67 310.89C227.2 329.96 227.71 348.65 231.61 364.07C232.88 364.26 239.24 365.22 250.68 366.95L245.31 308.39L238.27 308.39Z" id="aze6Ucobu"></path><path d="M247.68 250.79C241.72 252.71 238.42 253.78 237.76 253.99C234.62 267.5 231.8 282.6 230.01 297.83C230.63 297.64 233.75 296.68 239.36 294.95L247.68 250.79Z" id="c26QCHivo"></path><path d="M320.64 180.86C320.64 180.86 320.64 159.94 320.64 143.55C320.64 132.93 312.06 124.35 301.44 124.35C291.01 124.35 207.55 124.35 197.12 124.35C186.5 124.35 177.92 115.78 177.92 105.15C177.92 105.15 177.92 105.15 177.92 105.15C177.92 94.53 186.5 85.95 197.12 85.95C215.45 85.95 362.09 85.95 380.42 85.95C391.04 85.95 399.62 77.38 399.62 66.75C399.62 66.75 399.62 66.75 399.62 66.75C399.62 56.13 391.04 47.55 380.42 47.55C376.36 47.55 343.9 47.55 339.84 47.55C329.22 47.55 320.64 38.98 320.64 28.35C320.64 17.09 320.64 5.12 320.64 5.12" id="d14MXUyXjx"></path><path d="M313.02 189.18C312 189.18 311.23 188.35 311.23 187.39C311.23 187.23 311.23 185.95 311.23 185.79C311.23 184.77 312.06 184 313.02 184C314.41 184 325.52 184 326.91 184C327.94 184 328.7 184.83 328.7 185.79C328.7 185.95 328.7 187.23 328.7 187.39C328.77 188.35 327.94 189.18 326.91 189.18C324.13 189.18 314.41 189.18 313.02 189.18Z" id="b7ZNdKCFy"></path><path d="M313.34 180.99C312.19 180.99 311.23 180.03 311.23 178.88C311.23 178.77 311.23 177.9 311.23 177.79C311.23 176.64 312.19 175.68 313.34 175.68C314.68 175.68 325.32 175.68 326.66 175.68C327.81 175.68 328.77 176.64 328.77 177.79C328.77 177.9 328.77 178.77 328.77 178.88C328.77 180.03 327.81 180.99 326.66 180.99C323.99 180.99 314.68 180.99 313.34 180.99Z" id="dbUqFd9Qs"></path><path d="M360.53 196.86C350.86 191.04 341.07 187.52 331.79 185.15C329.36 184.51 326.99 186.37 326.99 188.86C326.99 189.63 326.99 193.45 326.99 200.32L303.95 200.32C303.95 193.48 303.95 189.69 303.95 188.93C303.95 186.43 301.58 184.58 299.15 185.22C289.81 187.58 280.08 191.1 270.42 196.93C270.42 196.93 260.05 202.62 256.46 211.9C246.42 237.57 225.1 318.78 238.74 364.67C259.02 413.25 270.54 441.98 279.31 447.87C287.95 453.7 305.42 455.1 315.47 454.72C325.52 455.17 342.99 453.76 351.63 447.87C360.34 441.98 371.92 413.25 392.21 364.67C405.84 318.72 384.53 237.5 374.48 211.84C370.9 202.62 363.32 199.86 360.53 196.86Z" id="cu1tIKf0U"></path><path d="M314.88 175.34C314.88 175.34 314.88 154.41 314.88 138.02C314.88 127.4 306.3 118.82 295.68 118.82C285.25 118.82 201.79 118.82 191.36 118.82C180.74 118.82 172.16 110.25 172.16 99.62C172.16 99.62 172.16 99.62 172.16 99.62C172.16 89 180.74 80.42 191.36 80.42C209.69 80.42 356.33 80.42 374.66 80.42C385.28 80.42 393.86 71.85 393.86 61.22C393.86 61.22 393.86 61.22 393.86 61.22C393.86 50.6 385.28 42.02 374.66 42.02C370.6 42.02 338.14 42.02 334.08 42.02C323.46 42.02 314.88 33.45 314.88 22.82C314.88 11.56 314.88 -0.41 314.88 -0.41" id="e1bxIEYovM"></path><path d="M313.66 184.83C312.9 184.83 312.26 184.19 312.26 183.42C312.26 183.24 312.26 181.75 312.26 181.57C312.26 180.8 312.9 180.16 313.66 180.16C314.93 180.16 325.07 180.16 326.34 180.16C327.1 180.16 327.81 180.8 327.81 181.57C327.81 181.75 327.81 183.24 327.81 183.42C327.81 184.19 327.17 184.83 326.34 184.83C323.8 184.83 314.93 184.83 313.66 184.83Z" id="c75DWvEPgX"></path><path d="M314.88 175.74C314.88 175.74 314.88 154.82 314.88 138.43C314.88 127.81 306.3 119.23 295.68 119.23C285.25 119.23 201.79 119.23 191.36 119.23C180.74 119.23 172.16 110.66 172.16 100.03C172.16 100.03 172.16 100.03 172.16 100.03C172.16 89.41 180.74 80.83 191.36 80.83C209.69 80.83 356.33 80.83 374.66 80.83C385.28 80.83 393.86 72.26 393.86 61.63C393.86 61.63 393.86 61.63 393.86 61.63C393.86 51.01 385.28 42.43 374.66 42.43C370.6 42.43 338.14 42.43 334.08 42.43C323.46 42.43 314.88 33.86 314.88 23.23C314.88 11.97 314.88 0 314.88 0" id="a1LcC3yrLr"></path><path d="M307.9 189.18C306.88 189.18 306.11 188.35 306.11 187.39C306.11 187.23 306.11 185.95 306.11 185.79C306.11 184.77 306.94 184 307.9 184C309.29 184 320.4 184 321.79 184C322.82 184 323.58 184.83 323.58 185.79C323.58 185.95 323.58 187.23 323.58 187.39C323.65 188.35 322.82 189.18 321.79 189.18C319.01 189.18 309.29 189.18 307.9 189.18Z" id="a1kKtTxNKb"></path><path d="M308.22 180.99C307.07 180.99 306.11 180.03 306.11 178.88C306.11 178.77 306.11 177.9 306.11 177.79C306.11 176.64 307.07 175.68 308.22 175.68C309.56 175.68 320.2 175.68 321.54 175.68C322.69 175.68 323.65 176.64 323.65 177.79C323.65 177.9 323.65 178.77 323.65 178.88C323.65 180.03 322.69 180.99 321.54 180.99C318.87 180.99 309.56 180.99 308.22 180.99Z" id="a1If8yStS5"></path><path d="M308.54 184.51C307.78 184.51 307.14 183.87 307.14 183.1C307.14 182.98 307.14 182.01 307.14 181.89C307.14 181.12 307.78 180.48 308.54 180.48C309.81 180.48 319.95 180.48 321.22 180.48C321.98 180.48 322.62 181.12 322.62 181.89C322.62 182.01 322.62 182.98 322.62 183.1C322.69 183.87 322.05 184.51 321.22 184.51C318.68 184.51 309.81 184.51 308.54 184.51Z" id="bDeWEY3N"></path><path d="M377.1 220.32C376.97 220.06 376.9 219.81 376.78 219.55C373.19 210.34 362.82 204.58 362.82 204.58C353.16 198.75 343.37 195.23 334.09 192.86C331.66 192.22 329.29 194.08 329.29 196.58C329.29 197.34 329.29 201.13 329.29 207.97L306.25 207.97C306.25 201.13 306.25 197.34 306.25 196.58C306.25 194.08 303.88 192.22 301.45 192.86C292.1 195.23 282.38 198.75 272.71 204.58C272.71 204.58 262.34 210.27 258.76 219.55C255.5 227.87 251.08 241.95 247.05 258.85C246.45 259.04 241.69 260.58 241.1 260.77C237.96 274.27 235.14 289.38 233.35 304.61C233.91 304.44 238.36 303.05 238.92 302.88C238.34 307.3 237.9 311.78 237.51 316.26C236.97 316.4 232.62 317.52 232.07 317.66C230.6 336.74 231.11 355.42 235.02 370.85C235.6 370.94 240.32 371.65 240.9 371.74C240.97 371.94 241.03 372.19 241.1 372.38C261.38 420.96 272.9 449.7 281.67 455.58C290.31 461.41 307.78 462.82 317.83 462.43C327.75 462.88 344.97 461.92 353.74 456.22C353.74 456.22 353.74 456.22 353.74 456.22C354.5 455.84 354.89 455.39 355.59 454.94C365 449.06 376.01 425.89 395.27 383.01C395.53 382.44 396.81 379.58 399.11 374.43C399.15 374.32 399.17 374.25 399.18 374.24C413.64 328.86 390.79 250.02 380.87 226.46C379.91 224.22 378.57 222.18 377.1 220.32Z" id="b8TenXIaiE"></path><path d="M238.72 307.39C232.96 308.89 229.76 309.72 229.12 309.89C227.65 328.96 228.16 347.65 232.06 363.07C233.34 363.26 239.69 364.22 251.14 365.95L245.76 307.39L238.72 307.39Z" id="b2ViBK9rk6"></path><path d="M238.72 307.39C232.96 308.89 229.76 309.72 229.12 309.89C227.65 328.96 228.16 347.65 232.06 363.07C233.34 363.26 239.69 364.22 251.14 365.95L245.76 307.39L238.72 307.39Z" id="fmCdk0NDq"></path><path d="M248.13 249.79C242.18 251.71 238.87 252.78 238.21 252.99C235.07 266.5 232.26 281.6 230.46 296.83C231.09 296.64 234.2 295.68 239.81 293.95L248.13 249.79Z" id="b5yjzeROnl"></path><path d="M240.64 307.39C234.88 308.89 231.68 309.72 231.04 309.89C229.57 328.96 230.08 347.65 233.98 363.07C235.26 363.26 241.61 364.22 253.06 365.95L247.68 307.39L240.64 307.39Z" id="d1LMCfAn6s"></path><path d="M250.05 249.79C244.1 251.71 240.79 252.78 240.13 252.99C236.99 266.5 234.18 281.6 232.38 296.83C233.01 296.64 236.12 295.68 241.73 293.95L250.05 249.79Z" id="b1xjuJmI1"></path><path d="M248.13 249.79C242.18 251.71 238.87 252.78 238.21 252.99C235.07 266.5 232.26 281.6 230.46 296.83C231.09 296.64 234.2 295.68 239.81 293.95L248.13 249.79Z" id="bbwGMUDDs"></path><path d="M361.92 202.69C358.34 200.7 354.62 198.91 350.78 197.31C350.78 222.46 350.78 423.62 350.78 448.77C351.55 448.38 352.38 447.94 353.09 447.49C362.5 441.6 373.06 417.98 392.38 375.17C392.64 374.6 393.92 371.74 396.22 366.59C396.26 366.48 396.28 366.41 396.29 366.4C410.75 321.15 387.9 242.37 377.98 218.75C373.95 209.15 363.07 203.26 361.92 202.69Z" id="b2huSWAZ0f"></path><path d="M361.92 202.69C358.34 200.7 354.62 198.91 350.78 197.31C350.78 222.46 350.78 423.62 350.78 448.77C351.55 448.38 352.38 447.94 353.09 447.49C362.5 441.6 373.06 417.98 392.38 375.17C392.64 374.6 393.92 371.74 396.22 366.59C396.26 366.48 396.28 366.41 396.29 366.4C410.75 321.15 387.9 242.37 377.98 218.75C373.95 209.15 363.07 203.26 361.92 202.69Z" id="btWOymRI"></path><path d="" id="b65Z5z6KeK"></path><path d="M359.94 196.86C350.27 191.04 340.48 187.52 331.2 185.15C328.77 184.51 326.4 186.37 326.4 188.86C326.4 189.63 326.4 193.45 326.4 200.32L303.36 200.32C303.36 193.48 303.36 189.69 303.36 188.93C303.36 186.43 300.99 184.58 298.56 185.22C289.22 187.58 279.49 191.1 269.82 196.93C269.82 196.93 259.46 202.62 255.87 211.9C245.82 237.57 224.51 318.78 238.14 364.67C258.43 413.25 269.95 441.98 278.72 447.87C287.36 453.7 304.83 455.1 314.88 454.72C324.93 455.17 342.4 453.76 351.04 447.87C359.74 441.98 371.33 413.25 391.62 364.67C405.25 318.72 383.94 237.5 373.89 211.84C370.3 202.62 362.73 199.86 359.94 196.86Z" id="aTjPzavSS"></path><path d="M366.66 201.86C363.14 198.66 359.94 196.86 359.94 196.86C350.27 191.04 340.48 187.52 331.2 185.15C328.77 184.51 326.4 186.37 326.4 188.86C326.4 189.63 326.4 193.45 326.4 200.32L303.36 200.32C303.36 193.48 303.36 189.69 303.36 188.93C303.36 186.43 300.99 184.58 298.56 185.22C289.22 187.58 279.49 191.1 269.82 196.93C269.82 196.93 259.46 202.62 255.87 211.9C245.82 237.57 224.51 318.78 238.14 364.67C244.1 379.01 249.34 391.55 253.95 402.3C262.53 407.17 271.62 409.79 281.09 409.79C330.62 409.73 370.75 338.11 370.75 249.79C370.75 233.09 369.34 216.96 366.66 201.86Z" id="b209YuzPw9"></path><path d="M359.94 196.86C350.27 191.04 340.48 187.52 331.2 185.15C328.77 184.51 326.4 186.37 326.4 188.86C326.4 189.63 326.4 193.45 326.4 200.32L303.36 200.32C303.36 193.48 303.36 189.69 303.36 188.93C303.36 186.43 300.99 184.58 298.56 185.22C289.22 187.58 279.49 191.1 269.82 196.93C269.82 196.93 259.46 202.62 255.87 211.9C245.82 237.57 224.51 318.78 238.14 364.67C258.43 413.25 269.95 441.98 278.72 447.87C287.36 453.7 304.83 455.1 314.88 454.72C324.93 455.17 342.4 453.76 351.04 447.87C359.74 441.98 371.33 413.25 391.62 364.67C405.25 318.72 383.94 237.5 373.89 211.84C370.3 202.62 362.73 199.86 359.94 196.86Z" id="a1snjZkQD3"></path><path d="M303.42 187.82C303.42 185.32 301.12 183.53 298.69 184.11C289.28 186.48 279.49 190 269.76 195.88C269.76 195.88 259.26 201.58 255.68 210.86C249.79 225.84 240.13 259.76 235.78 294.51C235.39 297.58 238.59 299.82 241.34 298.35C250.75 293.29 260.8 287.98 267.71 284.72C283.33 277.29 304.64 270.96 312.13 268.84C313.79 268.4 314.88 266.86 314.88 265.2C314.88 258.99 314.88 209.38 314.88 203.18C314.88 201.07 313.15 199.4 311.1 199.4C310.71 199.4 307.59 199.4 307.2 199.4C305.15 199.34 303.42 197.68 303.42 195.56C303.42 194.02 303.42 188.59 303.42 187.82Z" id="a1GLk8WRr0"></path><path d="M359.94 196.86C350.27 191.04 340.48 187.52 331.2 185.15C328.77 184.51 326.4 186.37 326.4 188.86C326.4 189.63 326.4 193.45 326.4 200.32L314.88 200.32C314.88 241.56 314.88 264.47 314.88 269.06C314.88 269.06 342.59 276.48 361.92 285.7C368.83 288.96 378.88 294.27 388.22 299.33C390.98 300.8 394.18 298.56 393.79 295.49C389.44 260.74 379.78 226.82 373.89 211.84C370.3 202.62 362.73 199.86 359.94 196.86Z" id="a6cUhWZtS3"></path><path d="M314.88 341.76C308.54 341.76 303.36 336.58 303.36 330.24C303.36 316.8 303.36 209.28 303.36 195.84C303.36 192.45 306.11 189.63 309.57 189.63C310.64 189.63 319.19 189.63 320.26 189.63C323.65 189.63 326.46 192.38 326.46 195.84C326.46 209.28 326.46 316.8 326.46 330.24C326.4 336.64 321.22 341.76 314.88 341.76C314.88 341.76 314.88 341.76 314.88 341.76Z" id="g2ntk0ytHo"></path><path d="M326.4 195.84C326.4 192.45 323.65 189.63 320.19 189.63C319.12 189.63 310.57 189.63 309.5 189.63C306.11 189.63 303.3 192.38 303.3 195.84C303.3 204.32 303.3 246.73 303.3 323.07L326.4 225.47C326.4 207.69 326.4 197.82 326.4 195.84Z" id="bUNjTnWsz"></path><path d="M319.94 281.79C319.94 279.04 317.7 276.74 314.88 276.74C312.06 276.74 309.82 278.98 309.82 281.79C309.82 283 309.82 289.04 309.82 299.9L319.94 299.9C319.94 289.04 319.94 283 319.94 281.79Z" id="b2GKczriuA"></path><path d="M319.94 323.14C319.94 325.89 317.7 328.19 314.88 328.19C312.06 328.19 309.82 325.95 309.82 323.14C309.82 321.93 309.82 315.89 309.82 305.02L319.94 305.02C319.94 315.89 319.94 321.93 319.94 323.14Z" id="bdyMw2qY"></path><path d="M314.88 341.76C308.54 341.76 303.36 336.58 303.36 330.24C303.36 316.81 303.36 209.34 303.36 195.9C303.36 192.45 306.18 189.63 309.63 189.63C310.69 189.63 319.14 189.63 320.19 189.63C323.65 189.63 326.46 192.45 326.46 195.9C326.46 209.34 326.46 316.81 326.46 330.24C326.4 336.64 321.22 341.76 314.88 341.76C314.88 341.76 314.88 341.76 314.88 341.76Z" id="a19cDShTrW"></path><path d="M312.77 257.47C310.4 257.47 308.48 255.55 308.48 253.18C308.48 250.34 308.48 227.55 308.48 224.7C308.48 222.34 310.4 220.42 312.77 220.42C313.18 220.42 316.51 220.42 316.93 220.42C319.3 220.42 321.22 222.34 321.22 224.7C321.22 227.55 321.22 250.34 321.22 253.18C321.28 255.55 319.3 257.47 316.93 257.47C316.1 257.47 313.18 257.47 312.77 257.47Z" id="gqdDo9atb"></path><path d="M309.18 253.76L320.58 253.76" id="h3gT1uYNuc"></path><path d="M309.18 249.92L320.58 249.92" id="c3TYvTku3"></path><path d="M309.18 246.08L320.58 246.08" id="cdADcOlZB"></path><path d="M309.18 242.24L320.58 242.24" id="b1ma93fbqe"></path><path d="M309.18 238.4L320.58 238.4" id="c4mSFQsIeV"></path><path d="M309.18 234.56L320.58 234.56" id="aRGzauzYU"></path><path d="M309.18 230.72L320.58 230.72" id="a3dibEAcI"></path><path d="M309.18 226.88L320.58 226.88" id="a1adSWmGVH"></path><path d="M309.18 223.04L320.58 223.04" id="a1TwHGvjJ6"></path><path d="M312.77 257.47C310.4 257.47 308.29 255.55 308.03 253.18C307.2 243.71 307.2 234.18 308.03 224.7C308.29 222.34 310.4 220.42 312.77 220.42C314.18 220.42 315.52 220.42 316.93 220.42C319.3 220.42 321.41 222.34 321.66 224.7C322.5 234.18 322.5 243.71 321.66 253.18C321.47 255.55 319.3 257.47 316.93 257.47C315.52 257.47 314.18 257.47 312.77 257.47Z" id="c1TJxXcZEj"></path><path d="M311.68 257.47C309.89 257.47 308.48 256.06 308.48 254.27C308.48 251.2 308.48 226.62 308.48 223.55C308.48 221.76 309.89 220.35 311.68 220.35C312.32 220.35 317.44 220.35 318.08 220.35C319.87 220.35 321.28 221.76 321.28 223.55C321.28 226.62 321.28 251.2 321.28 254.27C321.28 256.06 319.81 257.47 318.08 257.47C316.8 257.47 312.32 257.47 311.68 257.47Z" id="apAFhWqAn"></path><path d="M319.94 281.79C319.94 279.04 317.7 276.74 314.88 276.74C312.06 276.74 309.82 278.98 309.82 281.79C309.82 283 309.82 289.04 309.82 299.9L319.94 299.9C319.94 289.04 319.94 283 319.94 281.79Z" id="aQeBgWTgu"></path><path d="M319.94 323.14C319.94 325.89 317.7 328.19 314.88 328.19C312.06 328.19 309.82 325.95 309.82 323.14C309.82 321.93 309.82 315.89 309.82 305.02L319.94 305.02C319.94 315.89 319.94 321.93 319.94 323.14Z" id="blBowMCB6"></path></defs><g><g><g><use xlink:href="#aze6Ucobu" opacity="1" fill="#000000" fill-opacity="0"></use><g><use xlink:href="#aze6Ucobu" opacity="1" fill-opacity="0" stroke="#77c3b7" stroke-width="15" stroke-opacity="1"></use></g></g><g><use xlink:href="#c26QCHivo" opacity="1" fill="#000000" fill-opacity="0"></use><g><use xlink:href="#c26QCHivo" opacity="1" fill-opacity="0" stroke="#77c3b7" stroke-width="16" stroke-opacity="1"></use></g></g><g><use xlink:href="#d14MXUyXjx" opacity="1" fill="#000000" fill-opacity="0"></use><g><use xlink:href="#d14MXUyXjx" opacity="1" fill-opacity="0" stroke="#579aa3" stroke-width="6" stroke-opacity="1"></use></g></g><g><use xlink:href="#b7ZNdKCFy" opacity="1" fill="#579aa3" fill-opacity="1"></use><g><use xlink:href="#b7ZNdKCFy" opacity="1" fill-opacity="0" stroke="#000000" stroke-width="1" stroke-opacity="0"></use></g></g><g><use xlink:href="#dbUqFd9Qs" opacity="1" fill="#579aa3" fill-opacity="1"></use><g><use xlink:href="#dbUqFd9Qs" opacity="1" fill-opacity="0" stroke="#000000" stroke-width="1" stroke-opacity="0"></use></g></g><g><use xlink:href="#cu1tIKf0U" opacity="1" fill="#000000" fill-opacity="0"></use><g><use xlink:href="#cu1tIKf0U" opacity="1" fill-opacity="0" stroke="#9dd7ce" stroke-width="35" stroke-opacity="1"></use></g></g><g><use xlink:href="#e1bxIEYovM" opacity="1" fill="#000000" fill-opacity="0"></use><g><use xlink:href="#e1bxIEYovM" opacity="1" fill-opacity="0" stroke="#9dd7ce" stroke-width="32" stroke-opacity="1"></use></g></g><g><use xlink:href="#c75DWvEPgX" opacity="1" fill="#579aa3" fill-opacity="1"></use><g><use xlink:href="#c75DWvEPgX" opacity="1" fill-opacity="0" stroke="#000000" stroke-width="1" stroke-opacity="0"></use></g></g><g><use xlink:href="#a1LcC3yrLr" opacity="1" fill="#000000" fill-opacity="0"></use><g><use xlink:href="#a1LcC3yrLr" opacity="1" fill-opacity="0" stroke="#2f3140" stroke-width="8" stroke-opacity="1"></use></g></g><g><use xlink:href="#a1kKtTxNKb" opacity="1" fill="#2f3140" fill-opacity="1"></use><g><use xlink:href="#a1kKtTxNKb" opacity="1" fill-opacity="0" stroke="#000000" stroke-width="1" stroke-opacity="0"></use></g></g><g><use xlink:href="#a1If8yStS5" opacity="1" fill="#2f3140" fill-opacity="1"></use><g><use xlink:href="#a1If8yStS5" opacity="1" fill-opacity="0" stroke="#000000" stroke-width="1" stroke-opacity="0"></use></g></g><g><use xlink:href="#bDeWEY3N" opacity="1" fill="#2f3140" fill-opacity="1"></use><g><use xlink:href="#bDeWEY3N" opacity="1" fill-opacity="0" stroke="#000000" stroke-width="1" stroke-opacity="0"></use></g></g><g><use xlink:href="#b8TenXIaiE" opacity="1" fill="#579aa3" fill-opacity="1"></use><g><use xlink:href="#b8TenXIaiE" opacity="1" fill-opacity="0" stroke="#579aa3" stroke-width="6" stroke-opacity="1"></use></g></g><g><use xlink:href="#b2ViBK9rk6" opacity="1" fill="#7c7c94" fill-opacity="1"></use><g><use xlink:href="#b2ViBK9rk6" opacity="1" fill-opacity="0" stroke="#000000" stroke-width="1" stroke-opacity="0"></use></g></g><g><use xlink:href="#fmCdk0NDq" opacity="1" fill="#000000" fill-opacity="0"></use><g><use xlink:href="#fmCdk0NDq" opacity="1" fill-opacity="0" stroke="#2f3140" stroke-width="3" stroke-opacity="1"></use></g></g><g><use xlink:href="#b5yjzeROnl" opacity="1" fill="#7c7c94" fill-opacity="1"></use><g><use xlink:href="#b5yjzeROnl" opacity="1" fill-opacity="0" stroke="#000000" stroke-width="1" stroke-opacity="0"></use></g></g><g><use xlink:href="#d1LMCfAn6s" opacity="1" fill="#6c6d81" fill-opacity="1"></use><g><use xlink:href="#d1LMCfAn6s" opacity="1" fill-opacity="0" stroke="#000000" stroke-width="1" stroke-opacity="0"></use></g></g><g><use xlink:href="#b1xjuJmI1" opacity="1" fill="#6c6d81" fill-opacity="1"></use><g><use xlink:href="#b1xjuJmI1" opacity="1" fill-opacity="0" stroke="#000000" stroke-width="1" stroke-opacity="0"></use></g></g><g><use xlink:href="#bbwGMUDDs" opacity="1" fill="#000000" fill-opacity="0"></use><g><use xlink:href="#bbwGMUDDs" opacity="1" fill-opacity="0" stroke="#2f3140" stroke-width="3" stroke-opacity="1"></use></g></g><g><use xlink:href="#b2huSWAZ0f" opacity="1" fill="#565864" fill-opacity="1"></use><g><use xlink:href="#b2huSWAZ0f" opacity="1" fill-opacity="0" stroke="#000000" stroke-width="1" stroke-opacity="0"></use></g></g><g><use xlink:href="#btWOymRI" opacity="1" fill="#000000" fill-opacity="0"></use><g><use xlink:href="#btWOymRI" opacity="1" fill-opacity="0" stroke="#2f3140" stroke-width="3" stroke-opacity="1"></use></g></g><g><use xlink:href="#b65Z5z6KeK" opacity="1" fill="#000000" fill-opacity="0"></use><g><use xlink:href="#b65Z5z6KeK" opacity="1" fill-opacity="0" stroke="#c06d4f" stroke-width="2" stroke-opacity="1"></use></g></g><g><use xlink:href="#aTjPzavSS" opacity="1" fill="#51566a" fill-opacity="1"></use><g><use xlink:href="#aTjPzavSS" opacity="1" fill-opacity="0" stroke="#000000" stroke-width="1" stroke-opacity="0"></use></g></g><g><use xlink:href="#b209YuzPw9" opacity="1" fill="#6c6d81" fill-opacity="1"></use><g><use xlink:href="#b209YuzPw9" opacity="1" fill-opacity="0" stroke="#000000" stroke-width="1" stroke-opacity="0"></use></g></g><g><use xlink:href="#a1snjZkQD3" opacity="1" fill="#000000" fill-opacity="0"></use><g><use xlink:href="#a1snjZkQD3" opacity="1" fill-opacity="0" stroke="#2f3140" stroke-width="6" stroke-opacity="1"></use></g></g><g><use xlink:href="#a1GLk8WRr0" opacity="1" fill="#000000" fill-opacity="0"></use><g><use xlink:href="#a1GLk8WRr0" opacity="1" fill-opacity="0" stroke="#2f3140" stroke-width="6" stroke-opacity="1"></use></g></g><g><use xlink:href="#a6cUhWZtS3" opacity="1" fill="#000000" fill-opacity="0"></use><g><use xlink:href="#a6cUhWZtS3" opacity="1" fill-opacity="0" stroke="#2f3140" stroke-width="6" stroke-opacity="1"></use></g></g><g><use xlink:href="#g2ntk0ytHo" opacity="1" fill="#7c7c94" fill-opacity="1"></use><g><use xlink:href="#g2ntk0ytHo" opacity="1" fill-opacity="0" stroke="#000000" stroke-width="1" stroke-opacity="0"></use></g></g><g><use xlink:href="#bUNjTnWsz" opacity="1" fill="#9093a2" fill-opacity="1"></use><g><use xlink:href="#bUNjTnWsz" opacity="1" fill-opacity="0" stroke="#000000" stroke-width="1" stroke-opacity="0"></use></g></g><g><use xlink:href="#b2GKczriuA" opacity="1" fill="#3c4155" fill-opacity="1"></use><g><use xlink:href="#b2GKczriuA" opacity="1" fill-opacity="0" stroke="#000000" stroke-width="1" stroke-opacity="0"></use></g></g><g><use xlink:href="#bdyMw2qY" opacity="1" fill="#3c4155" fill-opacity="1"></use><g><use xlink:href="#bdyMw2qY" opacity="1" fill-opacity="0" stroke="#000000" stroke-width="1" stroke-opacity="0"></use></g></g><g><use xlink:href="#a19cDShTrW" opacity="1" fill="#000000" fill-opacity="0"></use><g><use xlink:href="#a19cDShTrW" opacity="1" fill-opacity="0" stroke="#2f3140" stroke-width="6" stroke-opacity="1"></use></g></g><g><use xlink:href="#gqdDo9atb" opacity="1" fill="#3b4254" fill-opacity="1"></use><g><use xlink:href="#gqdDo9atb" opacity="1" fill-opacity="0" stroke="#000000" stroke-width="1" stroke-opacity="0"></use></g></g><g><use xlink:href="#h3gT1uYNuc" opacity="1" fill="#000000" fill-opacity="0"></use><g><use xlink:href="#h3gT1uYNuc" opacity="1" fill-opacity="0" stroke="#c06d4f" stroke-width="2" stroke-opacity="1"></use></g></g><g><use xlink:href="#c3TYvTku3" opacity="1" fill="#000000" fill-opacity="0"></use><g><use xlink:href="#c3TYvTku3" opacity="1" fill-opacity="0" stroke="#c06d4f" stroke-width="2" stroke-opacity="1"></use></g></g><g><use xlink:href="#cdADcOlZB" opacity="1" fill="#000000" fill-opacity="0"></use><g><use xlink:href="#cdADcOlZB" opacity="1" fill-opacity="0" stroke="#c06d4f" stroke-width="2" stroke-opacity="1"></use></g></g><g><use xlink:href="#b1ma93fbqe" opacity="1" fill="#000000" fill-opacity="0"></use><g><use xlink:href="#b1ma93fbqe" opacity="1" fill-opacity="0" stroke="#c06d4f" stroke-width="2" stroke-opacity="1"></use></g></g><g><use xlink:href="#c4mSFQsIeV" opacity="1" fill="#000000" fill-opacity="0"></use><g><use xlink:href="#c4mSFQsIeV" opacity="1" fill-opacity="0" stroke="#c06d4f" stroke-width="2" stroke-opacity="1"></use></g></g><g><use xlink:href="#aRGzauzYU" opacity="1" fill="#000000" fill-opacity="0"></use><g><use xlink:href="#aRGzauzYU" opacity="1" fill-opacity="0" stroke="#c06d4f" stroke-width="2" stroke-opacity="1"></use></g></g><g><use xlink:href="#a3dibEAcI" opacity="1" fill="#000000" fill-opacity="0"></use><g><use xlink:href="#a3dibEAcI" opacity="1" fill-opacity="0" stroke="#c06d4f" stroke-width="2" stroke-opacity="1"></use></g></g><g><use xlink:href="#a1adSWmGVH" opacity="1" fill="#000000" fill-opacity="0"></use><g><use xlink:href="#a1adSWmGVH" opacity="1" fill-opacity="0" stroke="#c06d4f" stroke-width="2" stroke-opacity="1"></use></g></g><g><use xlink:href="#a1TwHGvjJ6" opacity="1" fill="#000000" fill-opacity="0"></use><g><use xlink:href="#a1TwHGvjJ6" opacity="1" fill-opacity="0" stroke="#c06d4f" stroke-width="2" stroke-opacity="1"></use></g></g><g><use xlink:href="#c1TJxXcZEj" opacity="1" fill="#000000" fill-opacity="0"></use><g><use xlink:href="#c1TJxXcZEj" opacity="1" fill-opacity="0" stroke="#2f3140" stroke-width="3" stroke-opacity="1"></use></g></g><g><use xlink:href="#apAFhWqAn" opacity="1" fill="#000000" fill-opacity="0"></use><g><use xlink:href="#apAFhWqAn" opacity="1" fill-opacity="0" stroke="#2f3140" stroke-width="3" stroke-opacity="1"></use></g></g><g><use xlink:href="#aQeBgWTgu" opacity="1" fill="#000000" fill-opacity="0"></use><g><use xlink:href="#aQeBgWTgu" opacity="1" fill-opacity="0" stroke="#2f3140" stroke-width="3" stroke-opacity="1"></use></g></g><g><use xlink:href="#blBowMCB6" opacity="1" fill="#000000" fill-opacity="0"></use><g><use xlink:href="#blBowMCB6" opacity="1" fill-opacity="0" stroke="#2f3140" stroke-width="3" stroke-opacity="1"></use></g></g></g></g></svg>